PathFileType	4	(X/Y/Z)	C:\Users\Biomechanik\SynologyDrive\AlexP\Athlete_03\Athlete_3_22_07_06\sq_70_EMG\marker_experimental.trc																																																																																																																																																																												
DataRate	CameraRate	NumFrames	NumMarkers	Units	OrigDataRate	OrigDataStartFrame	OrigNumFrames																																																																																																																																																																								
200	200	4	58	mm	200	960	1537																																																																																																																																																																								
Frame#	Time	BL			BR			GLAB			RFHD			LFHD			C7			T6			SPINMOL			SPINM2			SPINM3			T12			BELTOL			BELT2			BELT3			SACROL			SACR2			SACR3			LTHOL			LTH2			LTH3			LSHAOL			LSHA2			LSHA3			LHEE			LTOE			LM5			RTHOL			RTH2			RTH3			RSHAOL			RSHA2			RSHA3			RHEE			RTOE			RM5			STRN			XIPH			LACR			LUAOL			LUA2			LUA3			LLAOL			LLA2			LLA3			LWRU			RACR			RUAOL			RUA3			RLAOL			RLA2			RLA3			RWRU			USERMO0			USERMO1			USERMO2			USERMO3			USERMO4			USERMO5		
		X1	Y1	Z1	X2	Y2	Z2	X3	Y3	Z3	X4	Y4	Z4	X5	Y5	Z5	X6	Y6	Z6	X7	Y7	Z7	X8	Y8	Z8	X9	Y9	Z9	X10	Y10	Z10	X11	Y11	Z11	X12	Y12	Z12	X13	Y13	Z13	X14	Y14	Z14	X15	Y15	Z15	X16	Y16	Z16	X17	Y17	Z17	X18	Y18	Z18	X19	Y19	Z19	X20	Y20	Z20	X21	Y21	Z21	X22	Y22	Z22	X23	Y23	Z23	X24	Y24	Z24	X25	Y25	Z25	X26	Y26	Z26	X27	Y27	Z27	X28	Y28	Z28	X29	Y29	Z29	X30	Y30	Z30	X31	Y31	Z31	X32	Y32	Z32	X33	Y33	Z33	X34	Y34	Z34	X35	Y35	Z35	X36	Y36	Z36	X37	Y37	Z37	X38	Y38	Z38	X39	Y39	Z39	X40	Y40	Z40	X41	Y41	Z41	X42	Y42	Z42	X43	Y43	Z43	X44	Y44	Z44	X45	Y45	Z45	X46	Y46	Z46	X47	Y47	Z47	X48	Y48	Z48	X49	Y49	Z49	X50	Y50	Z50	X51	Y51	Z51	X52	Y52	Z52	X53	Y53	Z53	X54	Y54	Z54	X55	Y55	Z55	X56	Y56	Z56	X57	Y57	Z57	X58	Y58	Z58
																																																																																																																																																																															
961	4.8	107.8941498	766.5936279	-2260.729004	297.4825134	798.972229	-47.21689224	520.8881836	977.1749878	-1152.255615	457.059021	985.0585938	-1077.631104	458.9285278	983.2907715	-1232.658447	295.4870605	882.0066528	-1143.321899	149.0072327	773.4709473	-1145.557739	127.3586426	758.0696411	-1151.942871	82.95280457	718.9689941	-1098.29248	87.96076965	710.4304199	-1147.273926	69.33114624	682.8536987	-1145.283691	33.55133438	688.4682617	-1138.800903	-4.246663094	643.4398804	-1084.779419	-11.98520756	646.3027954	-1134.278809	-64.58356476	556.9350586	-1161.671143	-52.67007065	563.8007202	-1112.472412	-95.90194702	514.2546387	-1121.703003	51.51881409	483.7452393	-1416.767334	79.3321228	422.9725952	-1460.504395	96.57526398	470.0835266	-1457.761475	188.9257813	308.470459	-1595.20105	135.5278778	253.726593	-1575.357422	181.2101746	247.0023804	-1593.855591	73.36261749	43.77643967	-1495.841187	271.6300049	48.74890518	-1555.134399	205.0472717	22.0429554	-1646.250122	89.5549469	459.9714355	-858.1165771	150.886261	496.9256592	-824.3858643	134.5457764	450.5132446	-816.098999	179.9728851	301.5105286	-714.7479248	190.468689	223.5856628	-706.6549072	152.3670654	248.2526703	-728.7659302	57.35801697	45.17616272	-823.0072632	248.2609863	44.89299393	-747.2709961	178.8169403	36.94106293	-661.4207153	383.0142212	732.4484863	-1164.689697	343.5983887	573.822937	-1157.080933	252.1110535	820.9367676	-1343.125732	123.1637497	729.0126953	-1374.399658	87.30858612	687.1660767	-1336.993286	92.41790771	682.1003418	-1386.620483	76.32177734	649.3485107	-1462.585327	119.519928	668.182312	-1507.638306	114.6244278	700.0150757	-1469.04187	158.9703827	746.6981201	-1519.278076	296.7458191	819.4121094	-962.9136963	179.1473389	713.2887573	-906.9389038	124.5988388	687.3724365	-898.1628418	139.8329468	678.2390137	-823.1070557	182.608963	725.3157349	-834.5400391	181.2077026	708.3855591	-785.9799194	212.8614044	751.317688	-770.8952637	0.364984006	0.093455598	-0.416987002	0.118666999	0.112994999	-0.0413603	0.030025801	0.00655937	-0.052082401	0.101897001	0.220970005	-0.848384023	0.369899988	2.943500042	-0.365992993	2.75177002	0	0
962	4.805	108.10289	765.338501	-2260.782227	297.7517395	797.2590332	-47.27732849	521.0133667	975.821228	-1152.329346	457.175293	983.6564941	-1077.702393	459.0498962	981.9049072	-1232.738892	295.6936646	880.5975952	-1143.398193	149.1938629	772.1496582	-1145.632324	127.544548	756.7576294	-1152.029907	83.11870575	717.6950073	-1098.367676	88.11870575	709.1411133	-1147.345703	69.52980804	681.6376343	-1145.360962	33.75463104	687.2955933	-1138.881592	-4.059298038	642.2880249	-1084.852661	-11.79628372	645.1450806	-1134.352783	-64.49180603	555.6420898	-1161.713135	-52.59207535	562.5288086	-1112.5177	-95.79997253	512.9586792	-1121.74292	51.53791809	482.8571167	-1416.685059	79.47383881	422.1991577	-1460.486084	96.68383026	469.2554016	-1457.615723	189.0820923	308.4433594	-1595.129028	135.6720581	253.7051544	-1575.293213	181.3511658	246.9766693	-1593.801636	73.3984375	43.80782318	-1495.794434	271.655365	48.73339081	-1555.106445	205.0512848	22.0613327	-1646.241089	89.70587921	459.1981506	-858.3024292	151.0131531	496.3313904	-824.7154541	134.7570496	449.9095764	-816.3126221	180.2382813	301.4676208	-714.9737549	190.6887207	223.5448303	-706.8220825	152.6056519	248.216217	-728.9613037	57.40579224	45.20849609	-823.0487671	248.2669373	44.87048721	-747.288147	178.8371582	36.96671677	-661.4494019	383.1933289	731.0057983	-1164.782959	343.7409363	572.3831787	-1157.152954	252.3383636	819.5718994	-1343.196045	123.2990952	727.7804565	-1374.502808	87.40415955	685.9693604	-1337.088623	92.51041412	680.8951416	-1386.709839	76.39950562	648.1570435	-1462.680908	119.6265411	666.9539185	-1507.717285	114.7521973	698.7865601	-1469.123169	159.1533661	745.4259033	-1519.339355	296.9898376	818.0033569	-962.9825439	179.3500519	711.9448853	-906.9921265	124.7656937	686.0670166	-898.2356567	140.009079	676.8690796	-823.1803589	182.8184052	723.9185791	-834.6036377	181.4051514	706.9764404	-786.0473022	213.0861816	749.8850098	-770.9656372	0.37697801	0.094695397	-0.418628007	0.118257999	0.111146003	-0.040282201	0.029136401	0.00669021	-0.050873201	0.103361003	0.221417993	-0.850027025	0.370887011	2.945869923	-0.369322985	2.752300024	0	0
963	4.81	108.311142	764.1064453	-2260.832764	298.0192261	795.5644531	-47.33547211	521.142334	974.4967651	-1152.402222	457.2955322	982.2817383	-1077.773804	459.1774902	980.5491333	-1232.819458	295.9054565	879.2185669	-1143.480103	149.3847809	770.8574829	-1145.706177	127.7357025	755.4752808	-1152.116699	83.29032898	716.4509888	-1098.442871	88.28292847	707.8806763	-1147.416992	69.73873138	680.4514771	-1145.438599	33.96952438	686.152771	-1138.964111	-3.863509655	641.1698608	-1084.927002	-11.59823227	644.0200806	-1134.427856	-64.39820862	554.3956909	-1161.753296	-52.51164627	561.3017578	-1112.562012	-95.70244598	511.713623	-1121.781738	51.52616501	482.0020752	-1416.609619	79.5736084	421.4548035	-1460.476929	96.75816345	468.4571838	-1457.485107	189.2016449	308.4195251	-1595.074829	135.7871399	253.6813354	-1575.243408	181.4633484	246.9533539	-1593.762695	73.43083191	43.83868027	-1495.752808	271.6777649	48.72035599	-1555.082642	205.0542145	22.0761013	-1646.234253	89.81890106	458.4561157	-858.4827271	151.1045074	495.7598267	-825.0303955	134.9238739	449.3320313	-816.5158691	180.4633789	301.4312439	-715.182251	190.8792114	223.511795	-706.9729614	152.8126221	248.1824036	-729.1417236	57.44970703	45.23972321	-823.0853882	248.2682495	44.852108	-747.2984009	178.8534088	36.98713303	-661.4732056	383.3733826	729.5905762	-1164.876465	343.8790283	570.9703369	-1157.227905	252.564743	818.2379761	-1343.264282	123.4350281	726.5787964	-1374.606934	87.49997711	684.8046265	-1337.183838	92.60314178	679.7213745	-1386.800049	76.47940063	646.9962158	-1462.774414	119.7344284	665.756958	-1507.794556	114.8829956	697.5880127	-1469.203247	159.3377686	744.1846924	-1519.397583	297.2341003	816.6255493	-963.0550537	179.5459442	710.6346436	-907.0471191	124.927742	684.7963257	-898.3116455	140.1809387	675.5335083	-823.2559814	183.0222778	722.5570068	-834.6651611	181.5993042	705.5990601	-786.1156616	213.3099213	748.4812012	-771.0351563	0.388817996	0.096557803	-0.420006007	0.118065	0.109353997	-0.039421301	0.028171699	0.0068023	-0.049368002	0.105369002	0.221741006	-0.850724995	0.372043997	2.948460102	-0.372855991	2.753070116	0	0
964	4.815	108.5190506	762.8987427	-2260.880615	298.2852173	793.8899536	-47.39169693	521.274292	973.2037964	-1152.474487	457.4190674	980.9360962	-1077.845459	459.3109436	979.225647	-1232.900146	296.1217041	877.8710938	-1143.568604	149.5801697	769.5953369	-1145.778931	127.9324493	754.2234497	-1152.203003	83.46801758	715.237854	-1098.5177	88.45398712	706.6498413	-1147.487549	69.95846558	679.2960205	-1145.516846	34.19664001	685.0405884	-1139.048462	-3.658963203	640.0863647	-1085.002441	-11.39057827	642.928772	-1134.504272	-64.30214691	553.1973267	-1161.791992	-52.4288063	560.1210938	-1112.606201	-95.60926056	510.5212708	-1121.820068	51.48386383	481.1810608	-1416.540894	79.63108063	420.7406006	-1460.477173	96.79627991	467.6918335	-1457.370605	189.2838287	308.3992004	-1595.038574	135.8729553	253.6551208	-1575.208008	181.5464172	246.9326324	-1593.73877	73.46001434	43.86920547	-1495.716675	271.697052	48.71015549	-1555.063477	205.0559692	22.08683395	-1646.22998	89.89243317	457.7457581	-858.6569824	151.1581421	495.2116394	-825.3297119	135.0446625	448.781189	-816.7078857	180.6472321	301.4013672	-715.3723755	191.0401154	223.4865265	-707.1068726	152.9875946	248.1508789	-729.3062134	57.48993301	45.27009583	-823.1171875	248.2654572	44.83807755	-747.3016968	178.8657379	37.00233841	-661.4922485	383.5541382	728.2047119	-1164.971069	344.0127258	569.5860596	-1157.305908	252.7893982	816.9368896	-1343.330322	123.5705185	725.40979	-1374.711304	87.59544373	683.6738892	-1337.27832	92.69537354	678.5814209	-1386.890503	76.5611496	645.868042	-1462.865967	119.8435516	664.5930786	-1507.870239	115.0164795	696.4215088	-1469.282227	159.5238037	742.9762573	-1519.452759	297.4785156	815.2803345	-963.1316528	179.7370148	709.3592529	-907.1044312	125.0867996	683.5609741	-898.3903198	140.3511047	674.2329102	-823.3336792	183.2224426	721.2321777	-834.7248535	181.7924347	704.2546387	-786.1849976	213.5337677	747.107605	-771.1040649	0.399998009	0.098906003	-0.421335012	0.118032999	0.107695997	-0.038773399	0.0271476	0.00689538	-0.047664002	0.107951999	0.222004995	-0.850579023	0.373445988	2.951220036	-0.376435012	2.754040003	0	0
